# xmcd CD database file
#
# Track frame offsets:
#	150
#	39295
#	77244
#	131025
#	190676
#	214271
#
# Disc length: 3698 seconds
#
# Revision: 0
# Processed by: cddbd v1.5.2PL0 Copyright (c) Steve Scherf et al.
# Submitted via: CDex 1.51
#
DISCID=4d0e7006
DTITLE=Enrico Rava - Jazz Italiano live 2009 - Roma 09\09\2009
DYEAR=2009
DGENRE=Jazz
TTITLE0=Autobiografia
TTITLE1=Serpent
TTITLE2=Interiors
TTITLE3=Algir Dalbughi
TTITLE4=Todamor
TTITLE5=Lavori casalinghi - The fearless five
EXTD=YEAR: 2009
EXTT0=
EXTT1=
EXTT2=
EXTT3=
EXTT4=
EXTT5=
PLAYORDER=
